<?xml version="1.0" encoding="utf-8"?>
<!-- Generator: Adobe Illustrator 16.0.3, SVG Export Plug-In . SVG Version: 6.00 Build 0)  -->
<!DOCTYPE svg PUBLIC "-//W3C//DTD SVG 1.1//EN" "http://www.w3.org/Graphics/SVG/1.1/DTD/svg11.dtd">
<svg version="1.1" id="Layer_1" xmlns="http://www.w3.org/2000/svg" xmlns:xlink="http://www.w3.org/1999/xlink" x="0px" y="0px"
	 width="20px" height="20px" viewBox="0 0 20 20" enable-background="new 0 0 20 20" xml:space="preserve">
<g display="none">
	<path display="inline" fill="#818181" d="M16.171,4.6c0,0.568-0.461,1.029-1.029,1.029H4.857c-0.568,0-1.029-0.461-1.029-1.029
		V3.057c0-0.568,0.461-1.028,1.029-1.028h10.284c0.568,0,1.029,0.46,1.029,1.028V4.6z M14.628,8.714H13.6
		c-0.567,0-1.028-0.46-1.028-1.028c0-0.568,0.461-1.029,1.028-1.029h1.028c0.568,0,1.029,0.461,1.029,1.029
		C15.657,8.254,15.196,8.714,14.628,8.714 M14.628,11.801H13.6c-0.567,0-1.028-0.461-1.028-1.029s0.461-1.028,1.028-1.028h1.028
		c0.568,0,1.029,0.46,1.029,1.028S15.196,11.801,14.628,11.801 M14.628,14.887H13.6c-0.567,0-1.028-0.461-1.028-1.029
		s0.461-1.028,1.028-1.028h1.028c0.568,0,1.029,0.46,1.029,1.028S15.196,14.887,14.628,14.887 M14.628,17.971H13.6
		c-0.567,0-1.028-0.459-1.028-1.027s0.461-1.029,1.028-1.029h1.028c0.568,0,1.029,0.461,1.029,1.029S15.196,17.971,14.628,17.971
		 M10.514,8.714H9.485c-0.568,0-1.028-0.46-1.028-1.028c0-0.568,0.46-1.029,1.028-1.029h1.028c0.568,0,1.028,0.461,1.028,1.029
		C11.542,8.254,11.082,8.714,10.514,8.714 M10.514,11.801H9.485c-0.568,0-1.028-0.461-1.028-1.029s0.46-1.028,1.028-1.028h1.028
		c0.568,0,1.028,0.46,1.028,1.028S11.082,11.801,10.514,11.801 M10.514,14.887H9.485c-0.568,0-1.028-0.461-1.028-1.029
		s0.46-1.028,1.028-1.028h1.028c0.568,0,1.028,0.46,1.028,1.028S11.082,14.887,10.514,14.887 M10.514,17.971H9.485
		c-0.568,0-1.028-0.459-1.028-1.027s0.46-1.029,1.028-1.029h1.028c0.568,0,1.028,0.461,1.028,1.029S11.082,17.971,10.514,17.971
		 M6.4,8.714H5.371c-0.568,0-1.029-0.46-1.029-1.028c0-0.568,0.461-1.029,1.029-1.029H6.4c0.567,0,1.027,0.461,1.027,1.029
		C7.428,8.254,6.968,8.714,6.4,8.714 M6.4,11.801H5.371c-0.568,0-1.029-0.461-1.029-1.029s0.461-1.028,1.029-1.028H6.4
		c0.567,0,1.027,0.46,1.027,1.028S6.968,11.801,6.4,11.801 M6.4,14.887H5.371c-0.568,0-1.029-0.461-1.029-1.029
		s0.461-1.028,1.029-1.028H6.4c0.567,0,1.027,0.46,1.027,1.028S6.968,14.887,6.4,14.887 M6.4,17.971H5.371
		c-0.568,0-1.029-0.459-1.029-1.027s0.461-1.029,1.029-1.029H6.4c0.567,0,1.027,0.461,1.027,1.029S6.968,17.971,6.4,17.971
		 M16.171,1H3.828C3.26,1,2.8,1.461,2.8,2.029v15.941C2.8,18.539,3.26,19,3.828,19h12.343c0.568,0,1.029-0.461,1.029-1.029V2.029
		C17.2,1.461,16.739,1,16.171,1"/>
</g>
<g display="none">
	<path display="inline" fill="#818181" d="M2.99,18.946l-0.961-0.672c-0.859-0.601,2.078-4.795,2.937-4.194l0.961,0.674
		c1.287,0.9,2.395,0.716,3.279-0.546l3.948-5.637c0.884-1.262,0.678-2.368-0.609-3.269L11.584,4.63
		c-0.859-0.602,2.345-5.176,3.203-4.575l0.961,0.672c3.002,2.103,2.99,5.662,0.929,8.606l-5.284,7.545
		C9.333,19.819,5.992,21.05,2.99,18.946"/>
</g>
<g display="none">
	<path display="inline" fill="#818181" d="M6.828,17.306c-2.265,0-4.101-1.837-4.101-4.103c0-2.264,1.836-4.1,4.101-4.1
		c2.266,0,4.102,1.836,4.102,4.1C10.93,15.469,9.094,17.306,6.828,17.306 M13.278,13.289l-1.069-0.41
		c-0.133-0.051-0.225-0.174-0.241-0.315c-0.012-0.091-0.025-0.183-0.042-0.274c-0.016-0.09-0.035-0.181-0.056-0.271
		c-0.033-0.14,0.01-0.286,0.117-0.38l0.859-0.753c0.205-0.181,0.26-0.479,0.131-0.72l-0.211-0.393
		c-0.129-0.241-0.408-0.361-0.671-0.29l-1.104,0.297c-0.137,0.037-0.283-0.009-0.379-0.112c-0.127-0.136-0.261-0.264-0.401-0.384
		c-0.108-0.093-0.161-0.238-0.13-0.377l0.253-1.116c0.06-0.266-0.071-0.54-0.318-0.659l-0.4-0.194
		C9.37,6.818,9.073,6.884,8.902,7.097L8.184,7.986c-0.09,0.111-0.236,0.159-0.376,0.132c-0.18-0.035-0.364-0.06-0.55-0.076
		C7.116,8.031,6.989,7.944,6.934,7.814l-0.452-1.05C6.374,6.513,6.107,6.369,5.838,6.417L5.399,6.495
		C5.131,6.544,4.93,6.772,4.917,7.044L4.858,8.186C4.85,8.328,4.761,8.453,4.632,8.513c-0.169,0.08-0.333,0.167-0.49,0.263
		C4.021,8.849,3.867,8.854,3.745,8.781L2.763,8.197C2.528,8.058,2.227,8.098,2.038,8.295L1.73,8.617
		C1.54,8.814,1.512,9.116,1.661,9.345l0.624,0.959c0.078,0.12,0.078,0.273,0.009,0.399c-0.088,0.161-0.169,0.326-0.241,0.496
		c-0.055,0.131-0.176,0.227-0.318,0.238l-1.139,0.105c-0.272,0.024-0.491,0.234-0.528,0.506L0.006,12.49
		c-0.037,0.27,0.118,0.531,0.373,0.629l1.069,0.408c0.132,0.051,0.224,0.176,0.242,0.316c0.011,0.091,0.025,0.182,0.041,0.273
		c0.017,0.092,0.036,0.182,0.056,0.271c0.033,0.139-0.009,0.287-0.117,0.38l-0.86,0.755c-0.205,0.18-0.259,0.479-0.13,0.721
		l0.21,0.392c0.129,0.241,0.408,0.36,0.671,0.291l1.104-0.298c0.138-0.037,0.284,0.009,0.381,0.111
		c0.127,0.137,0.26,0.264,0.4,0.385c0.108,0.093,0.161,0.238,0.129,0.377l-0.252,1.115c-0.06,0.267,0.072,0.541,0.318,0.659
		l0.401,0.194c0.245,0.119,0.542,0.053,0.713-0.159l0.718-0.89c0.09-0.111,0.235-0.159,0.375-0.133
		c0.181,0.035,0.365,0.061,0.551,0.076c0.142,0.012,0.269,0.099,0.325,0.229l0.451,1.051c0.108,0.25,0.375,0.395,0.644,0.346
		l0.438-0.078c0.27-0.049,0.47-0.276,0.484-0.549l0.058-1.142c0.008-0.142,0.097-0.267,0.227-0.327
		c0.168-0.079,0.332-0.167,0.488-0.262c0.123-0.074,0.276-0.079,0.398-0.006l0.983,0.584c0.234,0.14,0.535,0.099,0.724-0.098
		l0.309-0.322c0.189-0.196,0.218-0.5,0.068-0.728l-0.624-0.96c-0.078-0.119-0.078-0.273-0.009-0.398
		c0.089-0.16,0.169-0.328,0.24-0.496c0.056-0.131,0.178-0.227,0.318-0.239l1.139-0.104c0.271-0.025,0.491-0.236,0.529-0.506
		l0.06-0.441C13.687,13.647,13.533,13.386,13.278,13.289 M7.199,15.271c-1.142,0.205-2.234-0.555-2.438-1.697
		c-0.206-1.142,0.554-2.233,1.697-2.438c1.142-0.205,2.234,0.555,2.439,1.696C9.101,13.975,8.341,15.066,7.199,15.271 M6.828,9.703
		c-1.931,0-3.501,1.569-3.501,3.5c0,1.932,1.57,3.502,3.501,3.502s3.501-1.57,3.501-3.502C10.329,11.272,8.759,9.703,6.828,9.703"/>
	<path display="inline" fill="#818181" d="M14.671,8.594c-1.807,0-3.271-1.464-3.271-3.27c0-1.806,1.464-3.27,3.271-3.27
		c1.806,0,3.27,1.464,3.27,3.27C17.94,7.13,16.477,8.594,14.671,8.594 M19.993,4.679L19.94,4.335
		c-0.033-0.211-0.206-0.373-0.42-0.388L18.63,3.879c-0.111-0.008-0.208-0.081-0.252-0.183C18.349,3.63,18.317,3.565,18.285,3.5
		c-0.032-0.064-0.066-0.128-0.103-0.19C18.128,3.213,18.126,3.093,18.186,3l0.475-0.758c0.114-0.18,0.088-0.416-0.062-0.568
		l-0.246-0.247c-0.15-0.152-0.386-0.18-0.568-0.068l-0.76,0.47c-0.094,0.058-0.214,0.057-0.311,0.001
		C16.59,1.756,16.46,1.69,16.328,1.63c-0.102-0.045-0.173-0.142-0.181-0.253l-0.06-0.892c-0.015-0.213-0.176-0.389-0.386-0.423
		l-0.344-0.056c-0.211-0.035-0.418,0.082-0.499,0.279l-0.339,0.827c-0.043,0.103-0.141,0.171-0.252,0.182
		c-0.143,0.015-0.287,0.037-0.43,0.067c-0.108,0.023-0.223-0.014-0.293-0.098l-0.573-0.687c-0.137-0.164-0.37-0.212-0.561-0.116
		l-0.311,0.158c-0.191,0.095-0.29,0.311-0.239,0.519l0.211,0.868c0.026,0.108-0.013,0.221-0.097,0.296
		c-0.108,0.096-0.211,0.199-0.308,0.305c-0.075,0.082-0.188,0.121-0.296,0.093l-0.866-0.218c-0.208-0.052-0.424,0.046-0.522,0.235
		l-0.159,0.31c-0.098,0.19-0.051,0.423,0.111,0.561l0.682,0.579c0.086,0.072,0.12,0.188,0.097,0.296
		c-0.031,0.141-0.055,0.284-0.071,0.427C10.634,5,10.564,5.098,10.461,5.139L9.632,5.472C9.433,5.551,9.315,5.758,9.348,5.969
		l0.053,0.344c0.033,0.211,0.207,0.372,0.42,0.388l0.891,0.068c0.112,0.008,0.207,0.081,0.252,0.182
		c0.029,0.066,0.06,0.131,0.092,0.196c0.033,0.065,0.066,0.128,0.103,0.191c0.057,0.096,0.058,0.216-0.002,0.311L10.68,8.406
		c-0.113,0.181-0.086,0.417,0.064,0.568l0.245,0.248c0.15,0.151,0.386,0.179,0.568,0.067l0.76-0.469
		c0.095-0.059,0.214-0.057,0.311-0.001c0.126,0.073,0.255,0.139,0.386,0.198c0.102,0.046,0.174,0.142,0.181,0.253l0.061,0.893
		c0.015,0.213,0.175,0.388,0.385,0.423l0.344,0.055c0.211,0.035,0.419-0.081,0.499-0.278l0.339-0.827
		c0.043-0.103,0.143-0.172,0.252-0.183c0.144-0.014,0.287-0.036,0.43-0.066c0.108-0.023,0.223,0.013,0.295,0.098l0.572,0.686
		c0.138,0.164,0.369,0.212,0.561,0.116l0.311-0.157c0.19-0.096,0.289-0.312,0.239-0.519l-0.212-0.868
		c-0.025-0.108,0.014-0.222,0.096-0.296c0.11-0.097,0.212-0.199,0.311-0.306c0.073-0.082,0.187-0.12,0.295-0.093l0.867,0.218
		c0.206,0.052,0.423-0.045,0.521-0.235l0.159-0.31c0.097-0.19,0.052-0.423-0.111-0.561l-0.682-0.579
		c-0.085-0.072-0.12-0.187-0.096-0.296c0.029-0.141,0.054-0.283,0.069-0.426c0.012-0.111,0.081-0.209,0.185-0.251l0.83-0.333
		C19.908,5.096,20.026,4.89,19.993,4.679 M15.41,6.791c-0.81,0.409-1.798,0.084-2.206-0.726c-0.408-0.811-0.083-1.798,0.727-2.207
		c0.81-0.408,1.798-0.083,2.207,0.727C16.546,5.395,16.221,6.382,15.41,6.791 M14.671,2.654c-1.473,0-2.67,1.198-2.67,2.67
		c0,1.472,1.197,2.669,2.67,2.669c1.472,0,2.67-1.197,2.67-2.669C17.341,3.853,16.143,2.654,14.671,2.654"/>
</g>
<g display="none">
	<path display="inline" fill="#818181" d="M4.723,4.232c-2.538,2.132,0.387,5.975,0.387,5.975c-0.018-0.013-2.894-2.684-2.122-4.85
		C3.354,4.618,4.324,4.049,4.723,4.232 M1.878,5.219C0.03,10.406,9.958,17.469,10,17.5l0,0H10l0,0
		c0.041-0.031,9.968-7.094,8.122-12.281c-1.527-3.15-4.159-2.696-4.159-2.696S10.837,2.963,10,4.879
		C9.164,2.963,6.037,2.522,6.037,2.522S3.405,2.068,1.878,5.219"/>
</g>
<g display="none">
	<path display="inline" fill="#818181" d="M3.56,17.679c0,0.188,0.154,0.343,0.343,0.343h12.194c0.187,0,0.342-0.155,0.342-0.343
		V5.89c-0.007-0.312-0.148-0.507-0.516-0.517h-1.86c-0.557-0.006-0.848-0.285-0.854-0.853V2.496
		c-0.023-0.35-0.192-0.525-0.515-0.518H3.903c-0.19,0-0.343,0.152-0.343,0.343V17.679z M17.417,5.392v12.287
		c0,0.728-0.594,1.321-1.32,1.321H3.903c-0.726,0-1.321-0.595-1.321-1.321V2.321C2.582,1.597,3.178,1,3.903,1h9.186
		c0.294,0,0.543,0.101,0.751,0.291l3.364,3.53C17.351,4.963,17.426,5.152,17.417,5.392"/>
	<path display="inline" fill="#818181" d="M14.047,14.986H5.953v-0.891c-0.002-0.941,0.051-1.983,0.462-2.771
		c0.373-0.715,1.096-1.371,1.936-1.371h0.313c0.763,0.73,1.909,0.73,2.672,0h0.313c0.839,0,1.561,0.654,1.934,1.367
		c0.413,0.789,0.466,1.832,0.464,2.775V14.986z M11.828,7.168C11.802,6.193,11.085,5.374,10,5.374c-1.141,0-1.8,0.813-1.828,1.785
		C8.172,10.936,11.842,10.882,11.828,7.168"/>
</g>
<g display="none">
	<path display="inline" fill="#818181" d="M10.635,9.007l-3.571,4.019c-0.089,0.101-0.242,0.109-0.342,0.021
		c-0.101-0.088-0.109-0.241-0.021-0.34l3.57-4.021c0.089-0.1,0.242-0.109,0.342-0.021C10.713,8.754,10.723,8.907,10.635,9.007
		 M5.188,16.529c-0.445,0.501-1.216,0.547-1.718,0.102c-0.502-0.446-0.548-1.216-0.103-1.719c0.446-0.502,1.217-0.547,1.719-0.102
		C5.588,15.257,5.634,16.027,5.188,16.529 M18.885,5.273l-0.498-0.981C18.35,4.218,18.3,4.153,18.238,4.1
		c-0.268-0.238-0.68-0.213-0.918,0.055l-2.432,2.737c-0.05,0.057-0.127,0.082-0.202,0.067l-2.04-0.419
		c-0.036-0.008-0.069-0.025-0.099-0.05c-0.027-0.025-0.049-0.056-0.061-0.091l-0.656-1.977c-0.023-0.072-0.008-0.152,0.043-0.208
		l1.533-1.726c0.239-0.268,0.215-0.681-0.053-0.919c-0.061-0.053-0.131-0.095-0.209-0.124l-1.033-0.379
		c-0.417-0.153-0.895-0.032-1.19,0.299l-1.18,1.328L9.322,3.166C9.03,3.495,8.934,3.959,9.073,4.377l0.2,0.6l0.41,1.235
		c0.146,0.436,0.045,0.919-0.261,1.262l-3.979,4.479c-0.306,0.345-0.772,0.479-1.231,0.488c-0.881,0.019-1.754,0.39-2.385,1.101
		c-1.203,1.354-1.08,3.427,0.273,4.63s3.427,1.08,4.63-0.274c0.603-0.678,0.872-1.537,0.821-2.377
		c-0.028-0.462,0.058-0.941,0.365-1.287l4.022-4.526c0.305-0.343,0.773-0.499,1.223-0.406l1.274,0.262l0.62,0.127
		c0.431,0.089,0.881-0.06,1.173-0.389l0.42-0.473l2.079-2.34C19.022,6.158,19.085,5.669,18.885,5.273"/>
</g>
<g display="none">
	<path display="inline" fill="#818181" d="M7.807,3.611h4.386V4.85h1.111V3.444c0-0.521-0.424-0.944-0.945-0.944H7.64
		c-0.519,0-0.944,0.426-0.944,0.944V4.85h1.111V3.611z"/>
	<path display="inline" fill="#818181" d="M11.271,10.084V8.048c0-0.104-0.084-0.19-0.189-0.19H8.918c-0.105,0-0.19,0.086-0.19,0.19
		v2.036H6.692c-0.104,0-0.189,0.086-0.189,0.189v2.164c0,0.105,0.085,0.189,0.189,0.189h2.036v2.037c0,0.104,0.085,0.189,0.19,0.189
		h2.164c0.105,0,0.189-0.085,0.189-0.189v-2.037h2.037c0.104,0,0.189-0.084,0.189-0.189v-2.164c0-0.104-0.086-0.189-0.189-0.189
		H11.271z"/>
	<path display="inline" fill="#818181" d="M10,16.059c-2.598,0-4.703-2.105-4.703-4.703c0-2.597,2.105-4.703,4.703-4.703
		c2.597,0,4.703,2.106,4.703,4.703C14.703,13.953,12.598,16.059,10,16.059 M18.234,5.211H1.766c-0.307,0-0.557,0.25-0.557,0.557
		v11.177c0,0.306,0.25,0.556,0.557,0.556h16.468c0.307,0,0.557-0.25,0.557-0.556V5.768C18.791,5.461,18.541,5.211,18.234,5.211"/>
</g>
<g display="none">
	<path display="inline" fill="#818181" d="M16.5,12.5h-13V4h13V12.5z M18,3.5c0-0.552-0.447-1-1-1H3c-0.551,0-1,0.448-1,1V14h16V3.5
		z"/>
	<path display="inline" fill="#818181" d="M11.5,15v0.5L11,16H9l-0.5-0.5V15H1v1.5c0,0.552,0.449,1,1,1h16c0.553,0,1-0.448,1-1V15
		H11.5z"/>
</g>
<path display="none" fill="#818181" d="M6.893,11.495h1.85V8.963h-1.85V11.495z M3.096,11.495h1.85V8.963h-1.85V11.495z
	 M12.614,5.894h5.282h0.475h0.733L18.869,4h-6.958l-0.206,1.894h0.455H12.614z M11.866,12.77l0.675-6.208h5.438l0.901,7.247h0.974
	V16H0.146v-2.191h0.948V5.85L5.66,7.19V5.85l5.678,1.665L11.866,12.77z"/>
<g display="none">
	<path display="inline" fill="#818181" d="M17.025,7.204h-1.474v1.127h1.474V7.204z M15.552,5.116h1.474V4.241h-1.474V5.116z
		 M9.229,4.241h5.804v5.756h0.52V8.853h1.474v1.145h0.521V4.241h1.396c1.228,2.218,1.054,4.468,0,6.741h-0.834h-0.2H9.716H9.472
		H9.229C8.396,8.735,8.162,6.487,9.229,4.241 M5.307,7.41v2.466h0.937V7.397L5.307,7.41z M4.899,9.876V7.418l-1.407,0.02
		L1.955,9.826v0.051H4.899z M18.727,12.885c-0.211-0.209-0.5-0.339-0.818-0.339c-0.32,0-0.61,0.13-0.82,0.339
		c-0.209,0.21-0.339,0.499-0.339,0.819c0,0.318,0.13,0.609,0.339,0.818c0.21,0.211,0.5,0.338,0.82,0.338
		c0.318,0,0.607-0.127,0.818-0.338c0.209-0.209,0.338-0.5,0.338-0.818C19.064,13.384,18.936,13.095,18.727,12.885 M14.394,12.885
		c-0.209-0.209-0.499-0.339-0.818-0.339c-0.32,0-0.609,0.13-0.818,0.339c-0.21,0.21-0.34,0.499-0.34,0.819
		c0,0.318,0.13,0.609,0.34,0.818c0.209,0.211,0.498,0.338,0.818,0.338c0.319,0,0.609-0.127,0.818-0.338
		c0.21-0.209,0.339-0.5,0.339-0.818C14.732,13.384,14.604,13.095,14.394,12.885 M4.85,12.819c-0.21-0.209-0.5-0.337-0.819-0.337
		c-0.32,0-0.609,0.128-0.819,0.337c-0.208,0.211-0.339,0.501-0.339,0.819c0,0.32,0.131,0.61,0.339,0.819
		c0.21,0.21,0.499,0.339,0.819,0.339c0.319,0,0.609-0.129,0.819-0.339c0.209-0.209,0.337-0.499,0.337-0.819
		C5.187,13.32,5.059,13.03,4.85,12.819 M18.108,11.659c0.387,0.037,0.739,0.182,1.033,0.403H20v2.076h-0.084
		c-0.085,0.395-0.281,0.744-0.556,1.02c-0.373,0.371-0.887,0.601-1.452,0.601c-0.568,0-1.082-0.229-1.455-0.601
		c-0.273-0.275-0.471-0.625-0.555-1.02h-0.315c-0.084,0.395-0.281,0.744-0.555,1.02c-0.372,0.371-0.885,0.601-1.453,0.601
		c-0.567,0-1.081-0.229-1.454-0.601c-0.272-0.275-0.471-0.625-0.556-1.02H7.59H6.917H6.817H6.024
		c-0.091,0.366-0.282,0.695-0.54,0.954c-0.372,0.372-0.886,0.603-1.454,0.603c-0.567,0-1.08-0.23-1.454-0.603
		c-0.258-0.259-0.448-0.588-0.541-0.954H1.885H1.282H0.609H0v-1.81h0.609V9.632V9.436l0.108-0.168L2.557,6.41L2.75,6.108
		c2.088-0.031,1.593-0.023,4.84-0.073v0.682v5.346h2.125v-0.403H18.108z M17.025,5.636h-1.474v1.048h1.474V5.636z"/>
</g>
<g display="none">
	<polygon display="inline" fill="#818181" points="18.98,1 18.715,5.027 17.537,4.257 9.44,12.842 5.782,9.112 2.851,12.368 
		1.019,12.382 5.782,6.448 9.44,10.237 16.117,2.599 14.256,2.244 	"/>
	<polygon display="inline" fill="#818181" points="18.715,19 2.851,19 2.851,13.257 5.644,10.652 9.44,15.329 18.715,5.619 	"/>
</g>
<g display="none">
	<g display="inline">
		<path fill="#818181" d="M19.473,16.027c0,0,0.267,0.237-0.494,0.771c-0.01,0.006-0.018,0.011-0.024,0.016
			c-0.758,0.491-0.879,0.161-0.879,0.161s-1.215-1.79-1.44-2.122c-0.226-0.331,0.027-0.454,0.027-0.454l0.018-0.013l0.407-0.276
			l0.105-0.072l0.407-0.275c0,0,0.207-0.189,0.431,0.143C18.256,14.236,19.473,16.027,19.473,16.027"/>
		<path fill="#818181" d="M16.82,12.615l0.665,0.98l-0.918,0.623l-0.654-0.965c0.145-0.072,0.287-0.154,0.425-0.248
			C16.512,12.889,16.673,12.757,16.82,12.615"/>
		<path fill="#818181" d="M16.977,8.181c1.005,1.48,0.619,3.495-0.86,4.5c-0.299,0.202-0.621,0.349-0.952,0.44v-0.877
			c0.168-0.063,0.329-0.147,0.484-0.253c1.1-0.747,1.387-2.244,0.64-3.344c-0.287-0.421-0.682-0.723-1.124-0.892V6.878
			C15.878,7.078,16.527,7.52,16.977,8.181"/>
		<path fill="#818181" d="M15.164,13.528v0.905L7.963,17.5V7.512l7.201-2.36v1.319c-0.965-0.237-2.022-0.08-2.91,0.522
			c-1.659,1.128-2.092,3.387-0.965,5.048C12.167,13.334,13.731,13.881,15.164,13.528"/>
		<path fill="#818181" d="M15.164,12.244v0.877c-1.303,0.363-2.746-0.121-3.549-1.301c-1.004-1.481-0.619-3.495,0.86-4.5
			c0.819-0.557,1.804-0.687,2.688-0.441v0.877c-0.712-0.276-1.542-0.208-2.22,0.253c-1.101,0.747-1.386,2.243-0.639,3.345
			C12.946,12.298,14.144,12.642,15.164,12.244"/>
	</g>
	<polygon display="inline" fill="#818181" points="15.157,4.874 7.839,7.258 0.575,4.951 7.981,2.5 	"/>
	<polygon display="inline" fill="#818181" points="7.685,7.512 7.685,17.5 0.482,14.434 0.482,5.152 	"/>
</g>
<g display="none">
	<path display="inline" fill="#818181" d="M3.832,14.931c-0.433,0-0.783-0.351-0.783-0.78c0-0.434,0.35-0.783,0.783-0.783
		c0.431,0,0.781,0.35,0.781,0.783C4.612,14.58,4.263,14.931,3.832,14.931 M3.832,12.588c-0.863,0-1.563,0.697-1.563,1.563
		c0,0.861,0.7,1.562,1.563,1.562c0.862,0,1.562-0.7,1.562-1.562C5.393,13.285,4.693,12.588,3.832,12.588 M19.149,14.099h-0.942
		c-0.009-0.386-0.116-0.748-0.302-1.061h2.091C19.996,13.038,20.109,14.099,19.149,14.099 M5.718,13.038h8.414
		c-0.185,0.313-0.294,0.675-0.303,1.061H6.021C6.012,13.713,5.902,13.351,5.718,13.038 M3.832,14.098
		c0.001,0,0.001,0.001,0.002,0.001H3.828C3.83,14.099,3.831,14.098,3.832,14.098 M13.827,6.856h2.358
		c0.696,0,0.971,0.306,1.205,0.838c0.334,0.823,0.853,2.125,1.096,2.735h-1.167l-0.813-0.746c-0.188-0.167-0.348-0.314-0.935-0.314
		h-1.744V6.856z M3.832,11.957c0.574,0,1.099,0.226,1.489,0.59h9.206c0.393-0.364,0.917-0.59,1.492-0.59
		c0.576,0,1.1,0.226,1.492,0.59h1.952v-2.118c0,0-0.792-1.988-1.237-3.088c-0.288-0.658-0.789-1.391-2.04-1.391h-2.479
		c-0.509,0-0.786,0.221-0.786,0.727v4.133h-0.847V4.289H0v6.521v0.888v0.85H2.34C2.732,12.183,3.254,11.957,3.832,11.957
		 M0.007,13.038h1.937c-0.184,0.313-0.294,0.675-0.303,1.061h-0.57C-0.151,14.099,0.007,13.038,0.007,13.038 M16.019,14.935
		c-0.433,0-0.783-0.351-0.783-0.781c0-0.433,0.351-0.782,0.783-0.782c0.431,0,0.781,0.35,0.781,0.782
		C16.8,14.584,16.449,14.935,16.019,14.935 M16.019,12.588c-0.864,0-1.562,0.697-1.562,1.563c0,0.861,0.697,1.562,1.562,1.562
		c0.863,0,1.562-0.7,1.562-1.562C17.58,13.285,16.882,12.588,16.019,12.588"/>
</g>
<g display="none">
	<path display="inline" fill="#818181" d="M8.358,13.723c2.977,0,5.39-2.414,5.39-5.389c0-2.976-2.413-5.389-5.39-5.389
		c-2.975,0-5.389,2.413-5.389,5.389C2.969,11.309,5.383,13.723,8.358,13.723 M8.358,0c4.603,0,8.334,3.732,8.334,8.334
		c0,1.448-0.369,2.809-1.02,3.996l3.804,3.803c0.666,0.667,0.666,1.758,0,2.424L18.534,19.5c-0.666,0.667-1.758,0.667-2.424,0
		l-3.818-3.818h0.002c-1.172,0.629-2.512,0.985-3.936,0.985c-4.602,0-8.334-3.731-8.334-8.333C0.024,3.732,3.756,0,8.358,0"/>
</g>
<g display="none">
	<path display="inline" fill="#818181" d="M14.162,2.5c-2.025,0-3.419,1.118-4.16,2.794C9.262,3.618,7.866,2.5,5.841,2.5
		c-3.138,0-4.786,2.309-4.786,5.961c0,3.854,7.291,9.039,8.947,9.039c1.656,0,8.947-5.186,8.943-9.039
		C18.941,4.809,17.301,2.5,14.162,2.5"/>
</g>
<g display="none">
	<path display="inline" fill="#818181" d="M0,8.886c0-3.986,4.478-7.219,10-7.219s10,3.233,10,7.219c0,3.988-4.478,7.221-10,7.221
		c-0.714,0-1.411-0.057-2.082-0.159l-3.474,2.386V15C1.526,13.739,0,11.521,0,8.886"/>
</g>
<g display="none">
	<path display="inline" fill="#818181" d="M4.139,15.042c-0.433,0-0.849-0.144-1.248-0.26c-0.064,1.493,0.425,4.691,1.288,5.135
		c0.801,0.412,3.678-0.813,3.679-1.546c0.001-0.847-0.988-1.615-1.277-3.329H4.139z"/>
	<path display="inline" fill="#818181" d="M15.863,16.579c-0.74,0-2.545-2.618-2.545-7.514c0-4.895,1.805-7.325,2.545-7.325
		s2.473,2.524,2.473,7.42C18.336,14.055,16.604,16.579,15.863,16.579 M15.863,0h-0.367c-1.465,0-4.514,3.638-7.999,4.371h-3.38
		c-2.225,0-4.008,2.467-4.008,4.828c0,2.359,1.821,4.721,4.047,4.721h2.135c-1.107-2.328-1.348-5.395,0.563-8.094
		c-0.675,1.715-1.013,5.396,0.771,8.099c3.48,0.739,6.407,4.394,7.87,4.394c0.039,0,0.075-0.018,0.111-0.028
		c0.086,0.012,0.17,0.028,0.256,0.028c2.227,0,4.027-4.194,4.027-9.253S18.09,0,15.863,0"/>
</g>
<g display="none">
	<path display="inline" fill="#818181" d="M14.43,14.118l1.35,2.143l-3.656-1.329c-0.675,0.142-1.386,0.216-2.122,0.216
		c-4.143,0-7.501-2.389-7.501-5.337c0-2.949,3.358-5.338,7.501-5.338c4.142,0,7.499,2.389,7.499,5.338
		C17.5,11.579,16.291,13.146,14.43,14.118 M10,0C4.478,0,0,4.478,0,10c0,5.521,4.478,10,10,10s10-4.479,10-10
		C20,4.478,15.522,0,10,0"/>
	<path display="inline" fill="#818181" d="M5.438,11.537H5.234v-1.092H5.45c0.38,0,0.711,0.062,0.711,0.54
		C6.161,11.468,5.831,11.537,5.438,11.537 M5.234,8.836h0.238c0.313,0,0.557,0.12,0.557,0.478c0,0.449-0.285,0.535-0.62,0.535H5.234
		V8.836z M6.218,10.092c0.216-0.107,0.58-0.29,0.58-0.859c0-0.915-0.773-0.994-1.325-0.994H4.587c-0.097,0-0.121,0.017-0.121,0.119
		v3.657c0,0.096,0.023,0.118,0.121,0.118h0.932c0.734,0,1.41-0.154,1.41-1.104C6.928,10.377,6.485,10.167,6.218,10.092"/>
	<path display="inline" fill="#818181" d="M9.573,11.451h-1.37V8.359c0-0.103-0.022-0.12-0.12-0.12H7.555
		c-0.097,0-0.119,0.017-0.119,0.12v3.655c0,0.102,0.022,0.119,0.119,0.119h1.876c0.085,0,0.103-0.011,0.125-0.102L9.665,11.6
		c0.005-0.023,0.011-0.058,0.011-0.074C9.676,11.48,9.652,11.451,9.573,11.451"/>
	<path display="inline" fill="#818181" d="M11.189,11.633c-0.427,0-0.609-0.557-0.609-1.444c0-0.885,0.182-1.449,0.609-1.449
		c0.426,0,0.607,0.556,0.607,1.449C11.797,11.076,11.615,11.633,11.189,11.633 M11.189,8.143c-0.875,0-1.416,0.664-1.416,2.045
		c0,1.377,0.534,2.043,1.416,2.043c0.881,0,1.414-0.666,1.414-2.043C12.604,8.813,12.064,8.143,11.189,8.143"/>
	<path display="inline" fill="#818181" d="M15.415,10.087h-0.989c-0.097,0-0.12,0.017-0.12,0.118v0.375
		c0,0.103,0.023,0.12,0.12,0.12h0.427v0.825c-0.053,0.023-0.199,0.091-0.41,0.091c-0.613,0-0.761-0.563-0.761-1.45
		c0-0.871,0.188-1.41,0.767-1.41c0.386,0,0.705,0.25,0.738,0.25c0.022,0,0.046-0.022,0.063-0.057l0.188-0.376
		c0.022-0.044,0.028-0.068,0.028-0.084c0-0.097-0.546-0.348-1.058-0.348c-1.018,0-1.535,0.717-1.535,2.063
		c0,1.378,0.523,2.026,1.523,2.026c0.467,0,1.137-0.206,1.137-0.444v-1.582C15.533,10.104,15.511,10.087,15.415,10.087"/>
</g>
<g display="none">
	<path display="inline" fill="#818181" d="M13.75,6.875h-1.875c-0.213,0-0.625,0.235-0.625,0.625v0.624h1.875v2.5H11.25v5H8.749v-5
		H6.875v-2.5h1.874V6.875c0-1.251,1.251-2.5,2.898-2.5h2.103V6.875z M10,0C4.478,0,0,4.478,0,10c0,5.521,4.478,10,10,10
		s10-4.479,10-10C20,4.478,15.522,0,10,0"/>
</g>
<g display="none">
	<path display="inline" fill="#818181" d="M14.435,12.227c-0.13,0-0.222,0.034-0.279,0.106c-0.057,0.068-0.083,0.186-0.083,0.347
		v0.393h0.716V12.68c0-0.161-0.027-0.278-0.084-0.347C14.649,12.261,14.557,12.227,14.435,12.227"/>
	<path display="inline" fill="#818181" d="M11.634,12.213c-0.059,0-0.116,0.012-0.173,0.038c-0.057,0.023-0.112,0.064-0.168,0.117
		v2.415c0.065,0.063,0.13,0.109,0.193,0.137c0.063,0.027,0.127,0.041,0.195,0.041c0.1,0,0.172-0.028,0.221-0.082
		c0.045-0.055,0.069-0.143,0.069-0.266v-2.002c0-0.131-0.028-0.23-0.086-0.297C11.827,12.245,11.743,12.213,11.634,12.213"/>
	<path display="inline" fill="#818181" d="M15.625,13.674h-1.553v0.73c0,0.204,0.025,0.345,0.079,0.426
		c0.054,0.078,0.146,0.117,0.275,0.117c0.134,0,0.229-0.034,0.282-0.102c0.053-0.066,0.08-0.213,0.08-0.441v-0.177h0.836v0.199
		c0,0.396-0.101,0.696-0.306,0.898c-0.202,0.2-0.506,0.299-0.912,0.299c-0.364,0-0.65-0.106-0.859-0.318
		c-0.208-0.214-0.314-0.505-0.314-0.879v-1.741c0-0.334,0.116-0.609,0.347-0.82c0.229-0.211,0.524-0.317,0.888-0.317
		c0.372,0,0.659,0.099,0.858,0.294c0.2,0.195,0.299,0.477,0.299,0.844V13.674z M12.52,10.221c-0.214,0-0.372-0.064-0.479-0.19
		c-0.106-0.128-0.16-0.319-0.16-0.573V5.892h0.913v3.272c0,0.101,0.021,0.174,0.059,0.219c0.038,0.045,0.1,0.069,0.187,0.069
		c0.066,0,0.152-0.031,0.256-0.091c0.103-0.059,0.196-0.136,0.281-0.229v-3.24h0.915v4.268h-0.915V9.688
		c-0.167,0.172-0.343,0.306-0.527,0.396C12.866,10.176,12.689,10.221,12.52,10.221 M12.809,14.718c0,0.274-0.064,0.485-0.191,0.632
		c-0.126,0.146-0.312,0.219-0.552,0.219c-0.159,0-0.301-0.027-0.425-0.085c-0.125-0.056-0.241-0.143-0.347-0.262v0.297h-0.821v-5.25
		h0.821v1.69c0.109-0.116,0.227-0.209,0.348-0.269c0.123-0.062,0.248-0.092,0.373-0.092c0.258,0,0.456,0.083,0.59,0.247
		c0.136,0.165,0.204,0.406,0.204,0.724V14.718z M9.803,10.268c-0.399,0-0.719-0.109-0.959-0.322
		C8.604,9.732,8.484,9.442,8.484,9.081V6.868c0-0.331,0.121-0.594,0.369-0.79c0.246-0.195,0.578-0.294,0.992-0.294
		c0.38,0,0.689,0.104,0.931,0.311c0.241,0.207,0.362,0.472,0.362,0.797v2.205c0,0.364-0.117,0.651-0.354,0.859
		C10.545,10.163,10.22,10.268,9.803,10.268 M9.862,15.519H9.049v-0.427c-0.15,0.159-0.306,0.278-0.47,0.359
		c-0.161,0.084-0.318,0.125-0.471,0.125c-0.188,0-0.328-0.058-0.424-0.173c-0.095-0.116-0.143-0.288-0.143-0.52v-3.24h0.813v2.972
		c0,0.093,0.017,0.159,0.05,0.199c0.034,0.041,0.09,0.063,0.166,0.063c0.06,0,0.136-0.027,0.228-0.082
		c0.091-0.055,0.175-0.124,0.251-0.208v-2.943h0.813V15.519z M7.21,10.159H6.181V7.869L4.956,4.375h1.037l0.668,2.312h0.065
		l0.637-2.312h1.046L7.21,7.759V10.159z M7.185,11.03H6.237v4.488H5.323V11.03H4.375v-0.762h2.81V11.03z M10,0C4.478,0,0,4.478,0,10
		c0,5.521,4.478,10,10,10s10-4.479,10-10C20,4.478,15.522,0,10,0"/>
	<path display="inline" fill="#818181" d="M9.802,6.524C9.69,6.524,9.6,6.552,9.53,6.609C9.461,6.667,9.426,6.743,9.426,6.835v2.326
		c0,0.117,0.032,0.207,0.097,0.271s0.158,0.096,0.28,0.096c0.124,0,0.221-0.032,0.294-0.098c0.073-0.066,0.109-0.156,0.109-0.27
		V6.835c0-0.092-0.037-0.168-0.111-0.226C10.02,6.552,9.922,6.524,9.802,6.524"/>
</g>
<g display="none">
	<path display="inline" fill="#818181" d="M7.997,10.69c-0.863,0.103-1.342-0.396-1.539-0.82C6.66,9.641,6.883,9.532,7.314,9.502
		C6.37,9.259,6.022,8.756,5.915,8.147c0.262-0.068,0.59-0.128,0.767-0.101c-0.826-0.47-1.113-1.178-1.067-1.71
		c1.478,0.598,2.419,1.077,3.207,1.535c0.281,0.163,0.594,0.456,0.947,0.83c0.449-1.293,1.005-2.627,1.957-3.289
		c-0.017,0.149-0.091,0.29-0.188,0.404c0.27-0.266,0.62-0.45,0.976-0.503c-0.04,0.292-0.425,0.455-0.657,0.549
		c0.176-0.059,1.111-0.514,1.214-0.254c0.121,0.292-0.646,0.43-0.775,0.48c-0.098,0.035-0.195,0.075-0.291,0.116
		c1.187-0.128,2.32,0.938,2.65,2.259c0.022,0.096,0.047,0.202,0.069,0.312c0.433,0.176,1.219-0.009,1.472-0.177
		c-0.184,0.472-0.659,0.818-1.361,0.881c0.34,0.154,0.977,0.238,1.416,0.157c-0.278,0.324-0.727,0.619-1.491,0.612
		c-1.019,4.497-7.862,6.405-11.01,1.737c1.207,1.252,3.307,1.362,4.639-0.136C7.605,11.975,7.038,11.142,7.997,10.69 M10,20
		c5.522,0,10-4.479,10-10c0-5.522-4.478-10-10-10S0,4.478,0,10C0,15.521,4.478,20,10,20"/>
</g>
<g display="none">
	<path display="inline" fill="#818181" d="M15.625,15.624h-2.5v-4.687c0-0.251-0.252-0.659-0.429-0.759
		c-0.234-0.131-0.788-0.142-1.041-0.021l-1.03,0.496v4.971h-2.5V7.5h2.5v0.384c0.989-0.452,2.363-0.408,3.294,0.115
		c0.988,0.553,1.706,1.79,1.706,2.939V15.624z M5.625,6.875c-0.691,0-1.25-0.56-1.25-1.251c0-0.689,0.559-1.249,1.25-1.249
		c0.692,0,1.25,0.56,1.25,1.249C6.875,6.315,6.317,6.875,5.625,6.875 M6.875,15.624h-2.5V7.5h2.5V15.624z M10,0
		C4.478,0,0,4.478,0,10c0,5.521,4.478,10,10,10s10-4.479,10-10C20,4.478,15.522,0,10,0"/>
</g>
<g display="none">
	<rect y="2.399" display="inline" fill="#363534" width="20" height="4.001"/>
	<rect y="8" display="inline" fill="#363534" width="20" height="4.001"/>
	<rect y="13.602" display="inline" fill="#363534" width="20" height="3.999"/>
</g>
<path display="none" fill="#363534" d="M8.297,4.71c2.922-0.939,6.053,0.668,6.989,3.587c0.942,2.923-0.664,6.053-3.588,6.992
	c-2.918,0.939-6.049-0.667-6.988-3.59C3.77,8.78,5.378,5.649,8.297,4.71 M2.659,5.069c0.379,0.344,0.297,1.283,0.178,1.55
	C2.717,6.891,2.212,7.017,1.713,6.91C1.214,6.803,0.688,7.272,0.54,7.96C0.391,8.644,0.676,9.292,1.178,9.401
	c0.496,0.107,0.901,0.956,0.931,1.248c0.028,0.294-0.344,0.661-0.83,0.819c-0.486,0.153-0.707,0.83-0.492,1.494
	c0.213,0.668,0.787,1.085,1.273,0.93c0.486-0.159,1.001-0.078,1.15,0.178c0.146,0.254,0.313,1.184-0.029,1.563
	c-0.344,0.376-0.197,1.07,0.324,1.539c0.518,0.473,1.224,0.549,1.564,0.17c0.34-0.377,1.286-0.303,1.553-0.182
	c0.269,0.119,0.395,0.629,0.287,1.127c-0.106,0.496,0.367,1.027,1.051,1.176c0.687,0.143,1.332-0.143,1.441-0.639
	c0.107-0.498,0.959-0.904,1.25-0.934c0.293-0.029,0.658,0.344,0.817,0.83c0.155,0.486,0.825,0.707,1.494,0.492
	c0.667-0.217,1.085-0.787,0.93-1.273c-0.155-0.484,0.388-1.264,0.622-1.434c0.236-0.17,0.739-0.031,1.118,0.313
	c0.375,0.342,1.069,0.197,1.539-0.323c0.473-0.52,0.547-1.223,0.171-1.565c-0.383-0.344-0.305-1.286-0.182-1.552
	c0.121-0.267,0.625-0.396,1.125-0.289c0.498,0.106,1.027-0.366,1.176-1.049c0.146-0.685-0.143-1.332-0.639-1.439
	c-0.498-0.106-0.904-0.959-0.933-1.254c-0.028-0.292,0.343-0.661,0.829-0.813c0.486-0.159,0.707-0.833,0.493-1.497
	c-0.214-0.668-0.787-1.086-1.273-0.931c-0.483,0.155-1.264-0.389-1.436-0.625c-0.169-0.233-0.029-0.735,0.313-1.114
	c0.344-0.379,0.198-1.069-0.32-1.539c-0.519-0.471-1.225-0.548-1.567-0.169c-0.345,0.379-1.284,0.298-1.554,0.179
	c-0.264-0.12-0.395-0.626-0.287-1.125s-0.363-1.027-1.051-1.173c-0.687-0.149-1.33,0.14-1.438,0.635
	C10.493,1.674,9.638,2.079,9.35,2.108c-0.295,0.029-0.661-0.344-0.817-0.83C8.378,0.793,7.7,0.573,7.036,0.787
	C6.368,1,5.95,1.574,6.106,2.06c0.155,0.486-0.389,1.265-0.623,1.433C5.247,3.664,4.745,3.521,4.366,3.181
	c-0.375-0.34-1.069-0.198-1.539,0.321C2.354,4.02,2.28,4.727,2.659,5.069"/>
<g>
	<defs>
		<rect id="SVGID_1_" x="1.389" width="17.223" height="20"/>
	</defs>
	<clipPath id="SVGID_2_">
		<use xlink:href="#SVGID_1_"  overflow="visible"/>
	</clipPath>
	<path clip-path="url(#SVGID_2_)" fill="#363534" d="M10.013,11.649c2.456,0,4.153-3.046,4.153-6.094
		C14.166,2.509,13.613,0,10.013,0C6.416,0,5.832,2.508,5.832,5.556S7.559,11.649,10.013,11.649"/>
	<path clip-path="url(#SVGID_2_)" fill="#363534" d="M14.125,10.569c-0.234,1.159-1.852,2.411-4.094,2.411
		c-2.242,0-3.917-1.231-4.134-2.411c-3.1,0.221-4.508,4.635-4.508,4.635v2.328C1.389,19.082,3.74,20,3.74,20h12.494
		c0,0,2.377-0.918,2.377-2.468v-2.328C18.611,15.204,17.225,10.79,14.125,10.569"/>
</g>
</svg>
